<svg loading="eager" alt="" class="logo" viewBox="0 0 330 91" height="40" width="138" style="width: 160px; height: 60px; position: absolute;  z-index: 0; cursor: pointer;"><defs id="SvgjsDefs1052"></defs><g id="SvgjsG1053" featurekey="symbolContainer" transform="matrix(1,0,0,1,0,0)" fill="#111111"><rect width="110" height="91" rx="8"></rect></g><g id="SvgjsG1054" featurekey="symbolFeature-0" transform="matrix(0.9722231494064696,0,0,0.9722231494064696,6.388876835493674,-3.0981580822650834)" fill="#fcfcfc"><title xmlns="http://www.w3.org/2000/svg">Esport and Gaming</title><path xmlns="http://www.w3.org/2000/svg" d="M14,75.42114A3.67385,3.67385,0,0,0,15.078,78.024l2.28223,2.28222a3.68086,3.68086,0,0,0,5.20636-.00018L32.94727,69.92584A1,1,0,0,0,31.5332,68.5116L21.15228,78.892a1.68092,1.68092,0,0,1-2.37768.00018L16.49225,76.6098a1.68114,1.68114,0,0,1-.00006-2.37726L26.87311,63.85162a1,1,0,0,0-1.41419-1.41418h-.00006L15.078,72.8183A3.67342,3.67342,0,0,0,14,75.42114Z"></path><path xmlns="http://www.w3.org/2000/svg" d="M22.42175,53.32666a.99987.99987,0,0,0,.00013,1.41412h-.00007l9.11133,9.11084,9.11029,9.11084a1,1,0,0,0,1.41431-1.41418l-9.11041-9.11084-9.11139-9.1109A1,1,0,0,0,22.42175,53.32666Z"></path><path xmlns="http://www.w3.org/2000/svg" d="M30.23749,56.10779a.98964.98964,0,0,0,.30365.67187l8.07141,8.08551a.99172.99172,0,0,0,.70276.28986l.01086.0022c.031,0,.057-.01483.08716-.01758a.74092.74092,0,0,0,.45886-.16675.94451.94451,0,0,0,.11194-.06634l.04266-.03791.00879-.00775,6.31867-5.60913A1,1,0,0,0,45.02661,57.756h-.00006l-4.70044,4.17261V56.46393L41.73059,55.059a1,1,0,0,0-1.41437-1.414l-1.41314,1.41357H33.456l3.69074-4.151a1,1,0,0,0-1.49463-1.32892l-5.168,5.8125a.9431.9431,0,0,0-.06909.1167.57687.57687,0,0,0-.147.35035.95374.95374,0,0,0-.0404.20037c0,.00885.00482.01618.00506.025C30.23285,56.0918,30.23706,56.09949,30.23749,56.10779Zm8.08868,5.63971-4.68066-4.68891h4.68066Z"></path><polygon xmlns="http://www.w3.org/2000/svg" points="54.806 28.034 54.806 28.034 54.807 28.033 54.806 28.034"></polygon><path xmlns="http://www.w3.org/2000/svg" d="M53.17255,31.37732a1,1,0,0,0,1.4118-.08313h-.00006l1.71777-1.93262.001-.0011a25.97547,25.97547,0,0,1,18.439-8.71209,26.08775,26.08775,0,0,1-8.71491,18.44037L63.422,41.40784a1,1,0,0,0,1.32983,1.49389l2.60541-2.31939a28.08729,28.08729,0,0,0,9.41223-20.96125,1,1,0,0,0-.99994-1,27.98982,27.98982,0,0,0-20.96319,9.41285l-1.71686,1.93158A1,1,0,0,0,53.17255,31.37732Z"></path><path xmlns="http://www.w3.org/2000/svg" d="M67.37109,28.01892a1,1,0,0,0-1.41418.00006l-7.6875,7.688a1,1,0,0,0,1.41424,1.41418l7.6875-7.688A1,1,0,0,0,67.37109,28.01892Z"></path><path xmlns="http://www.w3.org/2000/svg" d="M81.22546,78.892a1.68085,1.68085,0,0,1-2.3775.00018L68.4668,68.5116a1,1,0,1,0-1.41407,1.4143l10.3808,10.38031a3.68085,3.68085,0,0,0,5.2063-.00012l2.28211-2.2821a3.6813,3.6813,0,0,0,0-5.20569L74.54108,62.43744a1,1,0,1,0-1.41419,1.41418h-.00006L83.50769,74.23248a1.68114,1.68114,0,0,1,0,2.37732Z"></path><path xmlns="http://www.w3.org/2000/svg" d="M76.16406,53.32654H76.164l-9.11133,9.11084-9.11041,9.1109a1,1,0,0,0,1.41431,1.41418l9.11029-9.11084,9.11126-9.11084a1,1,0,0,0-1.41406-1.41424Z"></path><path xmlns="http://www.w3.org/2000/svg" d="M24.23047,18.61523a1,1,0,0,0-1,1,28.05023,28.05023,0,0,0,9.41571,20.9657L60.0094,64.9046a.94325.94325,0,0,0,.1394.08246.96386.96386,0,0,0,.16449.09735.98168.98168,0,0,0,.23285.04706.93468.93468,0,0,0,.12769.02576l.01617-.0033a1.10609,1.10609,0,0,0,.69092-.28961l8.09863-8.09863a1.10363,1.10363,0,0,0,.28962-.691l.00323-.01606a.94493.94493,0,0,0-.02557-.12689.97867.97867,0,0,0-.04718-.23352.96855.96855,0,0,0-.09766-.165.94433.94433,0,0,0-.08215-.13891L45.19659,28.03046A28.05073,28.05073,0,0,0,24.23047,18.61523Zm1.02734,2.02741a26.04521,26.04521,0,0,1,18.444,8.71655l22.84381,25.6994H61.088L34.04889,28.019a1,1,0,1,0-1.41425,1.41419L59.67383,56.47284V61.9303L33.97491,39.08606A26.04533,26.04533,0,0,1,25.25781,20.64264Zm36.416,36.416h4.68438L61.67377,61.743Z"></path></g><g id="SvgjsG1055" featurekey="nameFeature-0" transform="matrix(0.8434548081917665,0,0,0.8434548081917665,128.00944613786348,22.0593787114148)" fill="#111111"><path d="M16.6 40.48 c-8.16 0 -14.24 -6.36 -14.24 -14.4 l0 -0.08 c0 -7.96 5.96 -14.48 14.44 -14.48 c4.32 0 7.16 1.28 9.6 3.16 c0.52 0.4 0.96 1.08 0.96 1.96 c0 1.36 -1.08 2.4 -2.44 2.4 c-0.68 0 -1.16 -0.24 -1.48 -0.48 c-1.92 -1.56 -4 -2.52 -6.68 -2.52 c-5.32 0 -9.24 4.4 -9.24 9.88 l0 0.08 c0 5.48 3.88 9.92 9.24 9.92 c2.96 0 4.96 -0.96 7 -2.68 c0.36 -0.32 0.88 -0.56 1.48 -0.56 c1.24 0 2.32 1.04 2.32 2.28 c0 0.76 -0.36 1.36 -0.8 1.76 c-2.64 2.32 -5.64 3.76 -10.16 3.76 z M32.56 37.8 l0 -16.72 c0 -1.36 1.04 -2.44 2.4 -2.44 s2.44 1.08 2.44 2.44 l0 2.16 c1.12 -2.64 3.2 -4.64 5.32 -4.64 c1.52 0 2.4 1 2.4 2.4 c0 1.28 -0.84 2.12 -1.92 2.32 c-3.44 0.6 -5.8 3.24 -5.8 8.24 l0 6.24 c0 1.32 -1.08 2.4 -2.44 2.4 c-1.32 0 -2.4 -1.04 -2.4 -2.4 z M52.92 46.519999999999996 c-1.36 0 -2.36 -0.2 -3.36 -0.6 c-0.72 -0.24 -1.52 -0.84 -1.52 -2 c0 -1.2 0.92 -2 1.96 -2 c0.4 0 0.64 0.08 0.88 0.16 c0.56 0.16 1 0.28 1.68 0.28 c1.44 0 2.2 -0.6 3 -2.24 l0.16 -0.44 l-7.84 -17.52 c-0.16 -0.36 -0.28 -0.84 -0.28 -1.16 c0 -1.36 1.04 -2.36 2.4 -2.36 c1.24 0 1.92 0.72 2.36 1.84 l5.68 14.04 l5.28 -14.04 c0.4 -1 1.08 -1.84 2.32 -1.84 c1.28 0 2.32 1 2.32 2.28 c0 0.4 -0.12 0.92 -0.2 1.16 l-7.72 18.52 c-1.8 4.32 -3.72 5.92 -7.12 5.92 z M72.56 44.2 l0 -23.12 c0 -1.36 1.04 -2.44 2.4 -2.44 s2.44 1.08 2.44 2.44 l0 1.32 c1.56 -2.2 3.76 -3.96 7.2 -3.96 c4.96 0 9.8 3.92 9.8 10.96 l0 0.08 c0 7 -4.8 10.96 -9.8 10.96 c-3.52 0 -5.72 -1.76 -7.2 -3.72 l0 7.48 c0 1.36 -1.08 2.4 -2.44 2.4 c-1.32 0 -2.4 -1.04 -2.4 -2.4 z M83.44 36.24 c3.32 0 6.04 -2.6 6.04 -6.76 l0 -0.08 c0 -4.08 -2.76 -6.76 -6.04 -6.76 s-6.16 2.72 -6.16 6.76 l0 0.08 c0 4.04 2.88 6.76 6.16 6.76 z M106.48 40.36 c-3.56 0 -6.08 -1.56 -6.08 -6.2 l0 -11.12 l-0.8 0 c-1.16 0 -2.08 -0.92 -2.08 -2.08 s0.92 -2.08 2.08 -2.08 l0.8 0 l0 -3.6 c0 -1.32 1.08 -2.4 2.44 -2.4 c1.32 0 2.4 1.08 2.4 2.4 l0 3.6 l3.8 0 c1.16 0 2.12 0.92 2.12 2.08 s-0.96 2.08 -2.12 2.08 l-3.8 0 l0 10.36 c0 1.88 0.96 2.64 2.6 2.64 c0.56 0 1.04 -0.12 1.2 -0.12 c1.08 0 2.04 0.88 2.04 2 c0 0.88 -0.6 1.6 -1.28 1.88 c-1.04 0.36 -2.04 0.56 -3.32 0.56 z M125.88 40.48 c-6.44 0 -11.2 -4.92 -11.2 -10.92 l0 -0.08 c0 -6.04 4.8 -11.04 11.28 -11.04 s11.24 4.92 11.24 10.96 l0 0.08 c0 6 -4.8 11 -11.32 11 z M125.96 36.24 c3.92 0 6.4 -3.04 6.4 -6.68 l0 -0.08 c0 -3.72 -2.68 -6.8 -6.48 -6.8 c-3.88 0 -6.36 3.04 -6.36 6.72 l0 0.08 c0 3.68 2.68 6.76 6.44 6.76 z M154.67999999999998 37.52 l0 -23.04 c0 -1.4 1.08 -2.48 2.48 -2.48 l7.96 0 c8.8 0 14.88 6.04 14.88 13.92 l0 0.08 c0 7.88 -6.08 14 -14.88 14 l-7.96 0 c-1.4 0 -2.48 -1.08 -2.48 -2.48 z M159.6 35.519999999999996 l5.52 0 c5.88 0 9.72 -3.96 9.72 -9.44 l0 -0.08 c0 -5.48 -3.84 -9.52 -9.72 -9.52 l-5.52 0 l0 19.04 z M204.16 21.08 l0 16.72 c0 1.32 -1.08 2.4 -2.44 2.4 c-1.32 0 -2.44 -1.04 -2.44 -2.4 l0 -1.08 c-1.36 2 -3.32 3.72 -6.6 3.72 c-4.76 0 -7.52 -3.2 -7.52 -8.12 l0 -11.24 c0 -1.36 1.08 -2.44 2.4 -2.44 c1.36 0 2.44 1.08 2.44 2.44 l0 9.8 c0 3.28 1.64 5.12 4.52 5.12 c2.8 0 4.76 -1.92 4.76 -5.2 l0 -9.72 c0 -1.36 1.08 -2.44 2.44 -2.44 c1.32 0 2.44 1.08 2.44 2.44 z M213.84 27.96 l10.84 0 c-0.32 -3.12 -2.16 -5.56 -5.36 -5.56 c-2.96 0 -5.04 2.28 -5.48 5.56 z M227.48 37.68 c-1.92 1.72 -4.32 2.8 -7.6 2.8 c-6.12 0 -10.84 -4.44 -10.84 -10.96 l0 -0.08 c0 -6.04 4.28 -11 10.32 -11 c6.72 0 10.04 5.52 10.04 10.4 c0 1.36 -1.04 2.32 -2.28 2.32 l-13.24 0 c0.52 3.44 2.96 5.36 6.08 5.36 c2.04 0 3.64 -0.72 5 -1.84 c0.36 -0.28 0.68 -0.44 1.24 -0.44 c1.08 0 1.92 0.84 1.92 1.96 c0 0.6 -0.28 1.12 -0.64 1.48 z M234.64 37.8 l0 -24.8 c0 -1.32 1.04 -2.4 2.4 -2.4 s2.44 1.08 2.44 2.4 l0 24.8 c0 1.36 -1.08 2.4 -2.44 2.4 c-1.32 0 -2.4 -1.04 -2.4 -2.4 z"></path></g></svg>