<svg loading="eager" alt="" class="logo" viewBox="0 0 330 91" height="80" width="338" style="width: 338px; height: 80px; margin-bottom: 15px; position: absolute;   cursor: pointer;"><defs id="SvgjsDefs1052"></defs><g id="SvgjsG1053" featurekey="symbolContainer" transform="matrix(1,0,0,1,0,0)" fill="#111111"><rect width="110" height="91" rx="8"></rect></g><g id="SvgjsG1054" featurekey="symbolFeature-0" transform="matrix(0.9722231494064696,0,0,0.9722231494064696,6.388876835493674,-3.0981580822650834)" fill="#fcfcfc"><title xmlns="http://www.w3.org/2000/svg">Esport and Gaming</title><path xmlns="http://www.w3.org/2000/svg" d="M14,75.42114A3.67385,3.67385,0,0,0,15.078,78.024l2.28223,2.28222a3.68086,3.68086,0,0,0,5.20636-.00018L32.94727,69.92584A1,1,0,0,0,31.5332,68.5116L21.15228,78.892a1.68092,1.68092,0,0,1-2.37768.00018L16.49225,76.6098a1.68114,1.68114,0,0,1-.00006-2.37726L26.87311,63.85162a1,1,0,0,0-1.41419-1.41418h-.00006L15.078,72.8183A3.67342,3.67342,0,0,0,14,75.42114Z"></path><path xmlns="http://www.w3.org/2000/svg" d="M22.42175,53.32666a.99987.99987,0,0,0,.00013,1.41412h-.00007l9.11133,9.11084,9.11029,9.11084a1,1,0,0,0,1.41431-1.41418l-9.11041-9.11084-9.11139-9.1109A1,1,0,0,0,22.42175,53.32666Z"></path><path xmlns="http://www.w3.org/2000/svg" d="M30.23749,56.10779a.98964.98964,0,0,0,.30365.67187l8.07141,8.08551a.99172.99172,0,0,0,.70276.28986l.01086.0022c.031,0,.057-.01483.08716-.01758a.74092.74092,0,0,0,.45886-.16675.94451.94451,0,0,0,.11194-.06634l.04266-.03791.00879-.00775,6.31867-5.60913A1,1,0,0,0,45.02661,57.756h-.00006l-4.70044,4.17261V56.46393L41.73059,55.059a1,1,0,0,0-1.41437-1.414l-1.41314,1.41357H33.456l3.69074-4.151a1,1,0,0,0-1.49463-1.32892l-5.168,5.8125a.9431.9431,0,0,0-.06909.1167.57687.57687,0,0,0-.147.35035.95374.95374,0,0,0-.0404.20037c0,.00885.00482.01618.00506.025C30.23285,56.0918,30.23706,56.09949,30.23749,56.10779Zm8.08868,5.63971-4.68066-4.68891h4.68066Z"></path><polygon xmlns="http://www.w3.org/2000/svg" points="54.806 28.034 54.806 28.034 54.807 28.033 54.806 28.034"></polygon><path xmlns="http://www.w3.org/2000/svg" d="M53.17255,31.37732a1,1,0,0,0,1.4118-.08313h-.00006l1.71777-1.93262.001-.0011a25.97547,25.97547,0,0,1,18.439-8.71209,26.08775,26.08775,0,0,1-8.71491,18.44037L63.422,41.40784a1,1,0,0,0,1.32983,1.49389l2.60541-2.31939a28.08729,28.08729,0,0,0,9.41223-20.96125,1,1,0,0,0-.99994-1,27.98982,27.98982,0,0,0-20.96319,9.41285l-1.71686,1.93158A1,1,0,0,0,53.17255,31.37732Z"></path><path xmlns="http://www.w3.org/2000/svg" d="M67.37109,28.01892a1,1,0,0,0-1.41418.00006l-7.6875,7.688a1,1,0,0,0,1.41424,1.41418l7.6875-7.688A1,1,0,0,0,67.37109,28.01892Z"></path><path xmlns="http://www.w3.org/2000/svg" d="M81.22546,78.892a1.68085,1.68085,0,0,1-2.3775.00018L68.4668,68.5116a1,1,0,1,0-1.41407,1.4143l10.3808,10.38031a3.68085,3.68085,0,0,0,5.2063-.00012l2.28211-2.2821a3.6813,3.6813,0,0,0,0-5.20569L74.54108,62.43744a1,1,0,1,0-1.41419,1.41418h-.00006L83.50769,74.23248a1.68114,1.68114,0,0,1,0,2.37732Z"></path><path xmlns="http://www.w3.org/2000/svg" d="M76.16406,53.32654H76.164l-9.11133,9.11084-9.11041,9.1109a1,1,0,0,0,1.41431,1.41418l9.11029-9.11084,9.11126-9.11084a1,1,0,0,0-1.41406-1.41424Z"></path><path xmlns="http://www.w3.org/2000/svg" d="M24.23047,18.61523a1,1,0,0,0-1,1,28.05023,28.05023,0,0,0,9.41571,20.9657L60.0094,64.9046a.94325.94325,0,0,0,.1394.08246.96386.96386,0,0,0,.16449.09735.98168.98168,0,0,0,.23285.04706.93468.93468,0,0,0,.12769.02576l.01617-.0033a1.10609,1.10609,0,0,0,.69092-.28961l8.09863-8.09863a1.10363,1.10363,0,0,0,.28962-.691l.00323-.01606a.94493.94493,0,0,0-.02557-.12689.97867.97867,0,0,0-.04718-.23352.96855.96855,0,0,0-.09766-.165.94433.94433,0,0,0-.08215-.13891L45.19659,28.03046A28.05073,28.05073,0,0,0,24.23047,18.61523Zm1.02734,2.02741a26.04521,26.04521,0,0,1,18.444,8.71655l22.84381,25.6994H61.088L34.04889,28.019a1,1,0,1,0-1.41425,1.41419L59.67383,56.47284V61.9303L33.97491,39.08606A26.04533,26.04533,0,0,1,25.25781,20.64264Zm36.416,36.416h4.68438L61.67377,61.743Z"></path></g></svg>